<svg width="16" height="14" viewBox="0 0 16 14" fill="none" xmlns="http://www.w3.org/2000/svg">
<path d="M9.00007 13.7501C8.90153 13.7506 8.80389 13.7313 8.71288 13.6936C8.62187 13.6558 8.53932 13.6002 8.47007 13.5301C8.32962 13.3895 8.25073 13.1988 8.25073 13.0001C8.25073 12.8013 8.32962 12.6107 8.47007 12.4701L13.9401 7.00009L8.47007 1.53009C8.33759 1.38792 8.26547 1.19987 8.2689 1.00557C8.27233 0.811267 8.35104 0.625882 8.48845 0.488469C8.62586 0.351056 8.81125 0.272344 9.00555 0.268916C9.19985 0.265487 9.3879 0.33761 9.53007 0.47009L15.5301 6.47009C15.6705 6.61072 15.7494 6.80134 15.7494 7.00009C15.7494 7.19884 15.6705 7.38946 15.5301 7.53009L9.53007 13.5301C9.46083 13.6002 9.37828 13.6558 9.28727 13.6936C9.19625 13.7313 9.09861 13.7506 9.00007 13.7501Z" fill="#0A64BB"/>
<path d="M15 7.75H1C0.801088 7.75 0.610322 7.67098 0.46967 7.53033C0.329018 7.38968 0.25 7.19891 0.25 7C0.25 6.80109 0.329018 6.61032 0.46967 6.46967C0.610322 6.32902 0.801088 6.25 1 6.25H15C15.1989 6.25 15.3897 6.32902 15.5303 6.46967C15.671 6.61032 15.75 6.80109 15.75 7C15.75 7.19891 15.671 7.38968 15.5303 7.53033C15.3897 7.67098 15.1989 7.75 15 7.75Z" fill="#0A64BB"/>
</svg>
