<svg width="20" height="16" viewBox="0 0 20 16" fill="none" xmlns="http://www.w3.org/2000/svg">
<path d="M15.5003 14.25C15.3014 14.25 15.1107 14.171 14.97 14.0304C14.8294 13.8897 14.7503 13.6989 14.7503 13.5C14.7503 13.3011 14.8294 13.1104 14.97 12.9697C15.1107 12.829 15.3014 12.75 15.5003 12.75C17.1603 12.75 17.7503 11.92 17.7503 9.57003C17.6781 8.73232 17.3125 7.947 16.7179 7.35245C16.1234 6.7579 15.3381 6.39229 14.5003 6.32003C14.1598 6.32868 13.8226 6.38938 13.5003 6.50003C13.4031 6.54072 13.2982 6.56014 13.1928 6.55701C13.0874 6.55387 12.9839 6.52825 12.8892 6.48185C12.7945 6.43545 12.7108 6.36935 12.6438 6.28798C12.5767 6.20661 12.5278 6.11184 12.5003 6.01003C12.1198 4.82088 11.3278 3.8063 10.2667 3.14837C9.20552 2.49044 7.94462 2.23223 6.71027 2.4201C5.47591 2.60796 4.34892 3.22959 3.53155 4.17342C2.71417 5.11726 2.25993 6.3215 2.25035 7.57003C2.25035 10.79 2.40035 12.75 4.50035 12.75C4.69926 12.75 4.89003 12.829 5.03068 12.9697C5.17133 13.1104 5.25035 13.3011 5.25035 13.5C5.25035 13.6989 5.17133 13.8897 5.03068 14.0304C4.89003 14.171 4.69926 14.25 4.50035 14.25C0.75035 14.25 0.750349 10.39 0.750349 7.57003C0.719112 5.99379 1.2406 4.45633 2.22435 3.22436C3.20811 1.99239 4.59206 1.14363 6.13615 0.82531C7.68023 0.506991 9.28703 0.739196 10.6778 1.48165C12.0686 2.2241 13.1556 3.42995 13.7503 4.89003C14.0143 4.84236 14.2821 4.81893 14.5503 4.82003C15.7853 4.8958 16.95 5.42057 17.8249 6.29548C18.6998 7.17039 19.2246 8.33504 19.3003 9.57003C19.2503 10.85 19.2503 14.25 15.5003 14.25Z" fill="#4F5665"/>
<path d="M10.0007 15.1799C9.9022 15.1804 9.80456 15.1612 9.71355 15.1234C9.62254 15.0856 9.53999 15.0301 9.47075 14.9599L6.64075 12.1299C6.50827 11.9878 6.43614 11.7997 6.43957 11.6054C6.443 11.4111 6.52171 11.2257 6.65912 11.0883C6.79654 10.9509 6.98192 10.8722 7.17622 10.8688C7.37052 10.8653 7.55857 10.9375 7.70075 11.0699L10.0007 13.3699L12.3007 11.0699C12.4429 10.9375 12.631 10.8653 12.8253 10.8688C13.0196 10.8722 13.205 10.9509 13.3424 11.0883C13.4798 11.2257 13.5585 11.4111 13.5619 11.6054C13.5653 11.7997 13.4932 11.9878 13.3607 12.1299L10.5307 14.9999C10.3845 15.127 10.1942 15.1917 10.0007 15.1799Z" fill="#4F5665"/>
<path d="M10 15.1801C9.80109 15.1801 9.61032 15.1011 9.46967 14.9604C9.32902 14.8197 9.25 14.629 9.25 14.4301V8.07007C9.25 7.87116 9.32902 7.68039 9.46967 7.53974C9.61032 7.39909 9.80109 7.32007 10 7.32007C10.1989 7.32007 10.3897 7.39909 10.5303 7.53974C10.671 7.68039 10.75 7.87116 10.75 8.07007V14.4301C10.75 14.629 10.671 14.8197 10.5303 14.9604C10.3897 15.1011 10.1989 15.1801 10 15.1801Z" fill="#4F5665"/>
</svg>
