<svg width="20" height="14" viewBox="0 0 20 14" fill="none" xmlns="http://www.w3.org/2000/svg">
<path d="M18.2422 0H1.75781C0.786602 0 0 0.787967 0 1.75V12.25C0 13.2178 0.792383 14 1.75781 14H18.2422C19.2053 14 20 13.2211 20 12.25V1.75C20 0.789678 19.2165 0 18.2422 0ZM17.996 1.16667C17.6369 1.52231 11.4564 7.64295 11.243 7.85427C10.9109 8.18483 10.4695 8.36683 10 8.36683C9.53047 8.36683 9.08906 8.18479 8.75594 7.85318C8.61242 7.71104 2.50012 1.65799 2.00398 1.16667H17.996ZM1.17188 12.0125V1.98819L6.23586 7.00311L1.17188 12.0125ZM2.00473 12.8333L7.06672 7.82588L7.9284 8.67922C8.48176 9.23012 9.21746 9.53349 10 9.53349C10.7825 9.53349 11.5182 9.23012 12.0705 8.68031L12.9333 7.82588L17.9953 12.8333H2.00473ZM18.8281 12.0125L13.7641 7.00311L18.8281 1.98819V12.0125Z" fill="#8B909A"/>
</svg>
