<svg width="7" height="12" viewBox="0 0 7 12" fill="none" xmlns="http://www.w3.org/2000/svg">
<path d="M0.999828 11.7501C0.901288 11.7506 0.803647 11.7313 0.712635 11.6936C0.621623 11.6558 0.539073 11.6002 0.469829 11.5301C0.329378 11.3895 0.250488 11.1988 0.250488 11.0001C0.250488 10.8013 0.329378 10.6107 0.469829 10.4701L4.93983 6.00009L0.469829 1.53009C0.337349 1.38792 0.265225 1.19987 0.268653 1.00557C0.272081 0.811267 0.350794 0.625882 0.488207 0.488469C0.62562 0.351056 0.811005 0.272344 1.00531 0.268916C1.19961 0.265487 1.38765 0.33761 1.52983 0.47009L6.52983 5.47009C6.67028 5.61072 6.74917 5.80134 6.74917 6.00009C6.74917 6.19884 6.67028 6.38946 6.52983 6.53009L1.52983 11.5301C1.46058 11.6002 1.37803 11.6558 1.28702 11.6936C1.19601 11.7313 1.09837 11.7506 0.999828 11.7501Z" fill="black"/>
</svg>
